<?xml version="1.0" encoding="utf-8"?>
<svg version="1.0" xmlns="http://www.w3.org/2000/svg" width="512.000000pt" height="512.000000pt" viewBox="0 0 512.000000 512.000000" preserveAspectRatio="xMidYMid meet">
  <g transform="translate(0.000000,512.000000) scale(0.100000,-0.100000)" fill="#000000" stroke="none">
    <path d="M 995 4160 C 877 4153 853 4145 821 4104 C 802 4079 800 4064 800 3910 L 800 3742 L 645 3738 L 490 3735 C 444.207 3734.805 422.063 3711.4 425 3670 L 425 2430 L 425 1190 C 428.013 1145.532 439.109 1120 490 1125 L 1283 1123 C 2278 1121 2270 1121 2337 1087 C 2366 1072 2412 1039 2441 1014 C 2505 958 2550 935 2583 944 C 2597 947 2635 973 2667 1001 C 2730 1057 2792 1092 2857 1109 C 2887 1117 3148 1121 3751 1121 C 4661 1120 4640 1119 4685 1170 C 4705 1192 4705 1204 4702 2429 C 4699 3601 4698 3666 4681 3690 C 4653 3728 4608 3739 4463 3739 L 4330 3740 L 4330 3910 L 4330 4080 L 4301 4112 C 4266 4152 4237 4156 3925 4166 C 3687 4173 3530 4164 3360 4134 C 3081 4084 2822 3965 2628 3799 C 2597 3772 2569 3750 2565 3750 C 2561 3750 2535 3770 2507 3794 C 2252 4008 1949 4127 1573 4159 C 1442 4171 1172 4171 995 4160 Z M 1625 3951 C 1658 3944 1712 3935 1745 3929 C 1958 3894 2240 3755 2395 3608 L 2462 3545 L 2460 3323 L 2459 3101 L 2522 3065 C 2556 3045 2595 3020 2608 3009 C 2622 2999 2641 2990 2651 2990 C 2669 2990 2670 3003 2670 3268 L 2670 3546 L 2703 3581 C 2862 3753 3137 3887 3441 3940 C 3575 3964 3964 3979 4074 3966 L 4130 3959 L 4128 2842 L 4125 1726 L 3860 1729 C 3531 1732 3390 1717 3170 1656 C 3030 1617 2772 1484 2703 1414 C 2695 1406 2684 1400 2679 1400 C 2674 1400 2670 1470 2670 1565 C 2670 1689 2666 1738 2656 1759 C 2640 1788 2603 1810 2567 1810 C 2535 1810 2481 1774 2470 1744 C 2464 1730 2460 1647 2460 1558 C 2460 1432 2457 1399 2447 1403 C 2440 1405 2401 1432 2359 1461 C 2229 1554 2047 1633 1860 1678 C 1672 1724 1565 1734 1273 1733 L 1010 1732 L 1010 2844 C 1010 3456 1013 3960 1017 3963 C 1028 3974 1560 3963 1625 3951 Z M 773 3531 C 789 3530 790 3477 791 2578 C 791 1866 794 1616 803 1591 C 810 1572 828 1547 843 1536 C 870 1517 881 1515 993 1520 C 1060 1523 1221 1525 1350 1525 C 1604 1525 1714 1510 1889 1454 C 1993 1419 2150 1350 2150 1338 C 2150 1331 2030 1329 1783 1333 C 1580 1337 1238 1340 1023 1340 L 630 1340 L 630 2433 C 630 3035 632 3529 634 3531 C 638 3534 719 3535 773 3531 Z M 4498 2432 L 4500 1330 L 3725 1330 C 3299 1330 2950 1332 2950 1335 C 2950 1343 3084 1408 3152 1433 C 3208 1454 3263 1468 3460 1510 C 3543 1528 3887 1534 4069 1521 C 4248 1507 4282 1514 4317 1566 C 4334 1593 4335 1644 4337 2560 C 4339 3091 4340 3527 4340 3530 C 4340 3533 4375 3535 4418 3534 L 4495 3533 L 4498 2432 Z" style="fill: rgb(36, 114, 254);"/>
  </g>
  <path style="stroke: rgb(0, 0, 0); paint-order: fill; fill-rule: nonzero; stroke-width: 0px; fill: rgb(23, 200, 120);" d="M 187.743 224.112 C 166.095 209.259 162.664 234.18 169.973 238.017 C 177.203 241.812 263.301 320.028 255.851 321.422 C 255.254 321.534 330.075 201.126 382.206 185.212 C 354.374 153.951 255.505 276.082 254.636 280.565 C 254.225 282.685 197.281 230.656 187.743 224.112 Z"/>
</svg>